<?xml version="1.0" standalone="no"?>
<!DOCTYPE svg PUBLIC "-//W3C//DTD SVG 20010904//EN"
 "http://www.w3.org/TR/2001/REC-SVG-20010904/DTD/svg10.dtd">
<svg version="1.0" xmlns="http://www.w3.org/2000/svg"
 width="260.000000pt" height="260.000000pt" viewBox="0 0 260.000000 260.000000"
 preserveAspectRatio="xMidYMid meet">
<metadata>
Created by potrace 1.14, written by Peter Selinger 2001-2017
</metadata>
<g transform="translate(0.000000,260.000000) scale(0.100000,-0.100000)"
fill="#000000" stroke="none">
<path d="M858 1725 c-1 -2 -28 -6 -58 -10 -30 -4 -58 -9 -63 -12 -4 -2 -19 -7
-34 -9 -49 -9 -200 -91 -241 -131 -7 -7 -17 -13 -20 -13 -9 0 -159 -139 -151
-140 3 0 21 12 40 26 37 28 153 84 173 84 6 0 17 5 24 12 7 7 12 9 12 6 0 -4
15 -1 33 7 17 7 35 13 40 13 4 1 31 6 60 11 68 15 200 20 252 10 22 -4 56 -10
75 -13 19 -3 67 -16 105 -29 67 -24 91 -33 162 -64 18 -7 36 -14 40 -14 5 -1
19 -7 33 -15 36 -20 166 -61 225 -71 58 -10 170 -10 236 0 52 8 196 50 225 65
11 6 48 25 84 43 36 18 82 41 102 52 61 31 69 50 12 28 -61 -24 -87 -34 -96
-36 -5 -2 -9 -3 -10 -5 -5 -3 -42 -10 -128 -23 -77 -12 -256 -14 -320 -4 -61
9 -200 45 -250 64 -8 3 -19 7 -25 9 -5 2 -71 28 -145 58 -144 58 -227 84 -300
92 -25 2 -55 6 -67 8 -12 3 -23 3 -25 1z"/>
<path d="M809 1536 c-2 -2 -22 -6 -44 -9 -110 -15 -287 -119 -425 -248 -68
-64 -67 -65 16 -13 129 82 325 138 484 136 33 0 143 -13 151 -18 3 -2 20 -6
37 -9 17 -3 44 -10 59 -17 15 -6 33 -12 38 -13 6 -2 69 -26 140 -55 135 -54
232 -88 275 -96 54 -11 218 -12 265 -3 28 6 61 12 75 15 57 11 320 128 328
146 2 5 10 8 18 8 8 0 14 5 14 10 0 6 7 10 17 10 9 0 14 3 10 6 -3 3 -42 -8
-85 -25 -44 -17 -98 -33 -119 -36 -21 -4 -56 -9 -78 -13 -49 -9 -277 -8 -325
0 -123 22 -186 41 -360 111 -153 61 -201 78 -295 103 -24 7 -191 15 -196 10z"/>
<path d="M800 1349 c-19 -3 -51 -9 -70 -13 -43 -8 -240 -104 -240 -117 0 -5
-6 -9 -14 -9 -8 0 -16 -3 -18 -7 -1 -5 -30 -30 -63 -58 -71 -59 -108 -95 -99
-95 3 0 18 8 32 19 24 16 109 63 122 66 3 1 19 7 35 14 131 52 200 65 340 65
105 1 159 -6 235 -30 30 -10 60 -18 65 -20 6 -1 55 -21 110 -44 188 -78 278
-107 363 -116 72 -8 142 -10 142 -4 0 3 21 6 47 7 53 3 164 33 233 65 100 45
115 52 120 57 3 4 28 17 55 30 48 24 85 51 68 51 -4 0 -20 -6 -34 -14 -37 -19
-170 -58 -177 -52 -3 3 -10 2 -17 -4 -23 -19 -207 -29 -315 -16 -114 13 -110
12 -220 40 -25 7 -168 62 -275 106 -169 69 -327 99 -425 79z"/>
</g>
</svg>
